<svg width="40" height="34" viewBox="0 0 40 34" fill="none" xmlns="http://www.w3.org/2000/svg">
<path d="M12.5431 0.937744L6.74034 4.63167L0.937561 8.3256V15.0519H2.30922V32.3073H26.8172L37.5428 25.4798V8.6312L39.0622 7.664V0.937744H12.5431Z" fill="#375DB6"/>
<path d="M12.5436 0.000123867C12.365 4.84431e-05 12.1902 0.050929 12.0396 0.146787L6.23683 3.8405L0.434053 7.53442C0.278485 7.6336 0.155626 7.77646 0.0808558 7.94512L0.0806337 7.94535C0.08056 7.94564 0.080485 7.94593 0.0804116 7.94623C0.0733577 7.96219 0.0667568 7.97835 0.0606048 7.99468C0.060173 7.99569 0.0597409 7.99669 0.0593126 7.99769C0.0568694 8.0042 0.0544969 8.01073 0.0521989 8.01729C0.050808 8.0213 0.0494433 8.02532 0.048107 8.02935C0.0467132 8.03358 0.0453485 8.03781 0.0440151 8.04206C0.0429174 8.04557 0.0418408 8.04909 0.0407846 8.05261C0.0337844 8.0757 0.0276782 8.09905 0.0224786 8.1226C0.0218931 8.12533 0.0213237 8.12806 0.0207625 8.13079C0.0194092 8.13681 0.0181134 8.14284 0.0168792 8.14888C0.0163635 8.1516 0.0158631 8.15433 0.0153716 8.15706C0.014391 8.16243 0.0134517 8.16782 0.0125652 8.17321C0.0114897 8.17987 0.0104881 8.18655 0.00955679 8.19324C0.00933354 8.19453 0.00911505 8.19583 0.00889723 8.19712C0.00820364 8.2025 0.0075524 8.20788 0.00695223 8.21327C0.00518387 8.2276 0.00375048 8.24196 0.00264494 8.25635C0.00240616 8.25972 0.00218767 8.26309 0.00198539 8.26647C0.00165203 8.27142 0.00135173 8.27637 0.00109701 8.28133C0.00101031 8.2842 0.000941972 8.28707 0.000881647 8.28994C0.000568462 8.29755 0.000343229 8.30516 0.000215364 8.31277C0.00011315 8.31701 4.48057e-05 8.32124 0 8.32548V15.0522C2.56543e-05 15.3008 0.0988238 15.5393 0.27467 15.7152C0.450516 15.891 0.689011 15.9898 0.937696 15.9899H1.37144V32.3074C1.37142 32.4305 1.39566 32.5525 1.44278 32.6662C1.48989 32.78 1.55896 32.8834 1.64604 32.9705C1.73311 33.0576 1.83648 33.1267 1.95026 33.1738C2.06403 33.221 2.18598 33.2453 2.30913 33.2453H26.7971C26.8037 33.2454 26.8102 33.2455 26.8167 33.2455C27.003 33.2456 27.1851 33.1902 27.3398 33.0863L38.0462 26.2707C38.1793 26.186 38.2888 26.0692 38.3647 25.9309C38.4406 25.7927 38.4804 25.6376 38.4804 25.4799V9.14578L39.5658 8.45489C39.6989 8.37012 39.8083 8.25317 39.8841 8.11486C39.96 7.97656 39.9997 7.82137 39.9996 7.66364V0.965602C40.0051 0.777756 39.9541 0.592577 39.8531 0.434083C39.7736 0.309273 39.6656 0.205067 39.5381 0.129988C39.5377 0.129841 39.5373 0.129691 39.537 0.129544C39.4827 0.0976739 39.4255 0.0713454 39.366 0.0509431C39.3604 0.049023 39.3548 0.0471511 39.3492 0.0453369C39.3462 0.0443888 39.3433 0.0434562 39.3403 0.0425372C39.339 0.0421665 39.3376 0.0417979 39.3363 0.0414334C39.3118 0.0338885 39.287 0.0273499 39.262 0.0218353C39.2562 0.0205598 39.2504 0.0193391 39.2445 0.0181741C39.2415 0.0175859 39.2385 0.0170165 39.2355 0.0164579C39.2344 0.0162355 39.2333 0.0160103 39.2323 0.0157916C39.2245 0.0143286 39.2166 0.0129706 39.2088 0.0117064C39.203 0.0107917 39.1972 0.00992744 39.1914 0.00912205C39.1883 0.00867662 39.1852 0.00825124 39.1821 0.0078366C39.1799 0.00760799 39.1776 0.00738277 39.1754 0.00717031C39.1597 0.0051927 39.144 0.00361516 39.1282 0.0024323C39.1223 0.00200926 39.1164 0.00164061 39.1106 0.00132856C39.1074 0.00116554 39.1042 0.00101539 39.1011 0.000884372C39.0999 0.000882295 39.0988 0.000882295 39.0977 0.000884372C39.0898 0.00056585 39.082 0.000347346 39.0742 0.000224819C39.0715 0.000139471 39.0687 6.43979e-05 39.066 2.72459e-06C39.0645 -9.08198e-07 39.063 -9.08198e-07 39.0615 2.72459e-06L12.5436 0.000123867ZM12.8162 1.87552H35.8432L32.7561 3.8405L27.1838 7.38776H4.15684L7.24365 5.42278L12.8162 1.87552ZM38.1243 2.64673V7.14935L28.3939 13.3439V8.83996L33.763 5.42278L38.1243 2.64673ZM15.0278 3.8812C14.9292 3.88115 14.8316 3.90053 14.7405 3.93823C14.6494 3.97593 14.5667 4.03122 14.497 4.10092C14.4272 4.17063 14.372 4.25338 14.3343 4.34446C14.2966 4.43555 14.2772 4.53317 14.2772 4.63175C14.2772 4.73031 14.2966 4.8279 14.3343 4.91896C14.372 5.01002 14.4273 5.09276 14.497 5.16244C14.5667 5.23212 14.6495 5.28738 14.7405 5.32506C14.8316 5.36275 14.9292 5.38213 15.0278 5.38207H24.972C25.0706 5.38213 25.1682 5.36275 25.2592 5.32506C25.3503 5.28738 25.4331 5.23212 25.5028 5.16244C25.5725 5.09276 25.6277 5.01002 25.6655 4.91896C25.7032 4.8279 25.7226 4.73031 25.7225 4.63175C25.7226 4.53317 25.7032 4.43555 25.6655 4.34446C25.6278 4.25338 25.5725 4.17063 25.5028 4.10092C25.4331 4.03122 25.3504 3.97593 25.2593 3.93823C25.1682 3.90053 25.0706 3.88115 24.972 3.8812H15.0278ZM1.87549 9.26315H26.5185V14.1144H1.87549V9.26315ZM36.6049 10.3398V24.9651L27.7549 30.5989V15.941C27.835 15.914 27.9111 15.8765 27.9811 15.8292L36.6049 10.3398ZM3.24714 15.9898H25.8795V31.3696H3.24714V15.9898Z" fill="#1C2E58"/>
<path opacity="0.997" d="M9.25581 18.8665C8.97492 18.8661 8.70165 18.9189 8.44432 18.9772V18.9608L8.31402 18.995C7.78989 19.1321 7.33147 19.4601 6.94172 19.8106C6.45596 20.2475 6.05507 20.7907 5.76799 21.3759C5.49325 21.9359 5.32964 22.556 5.27222 23.1748C5.21305 23.8124 5.17879 24.5125 5.43913 25.1284C5.64682 25.6197 6.05808 25.9979 6.46232 26.3086C6.87306 26.6243 7.35607 26.8528 7.8525 26.9906C8.4326 27.1517 9.08262 27.3039 9.69537 27.1446C10.0856 27.0432 10.4746 26.8082 10.7016 26.4617C10.8459 26.2414 10.9085 25.9506 10.843 25.6892C10.7925 25.4873 10.666 25.2454 10.4255 25.1852C10.2137 25.1323 10.0309 25.2404 9.8752 25.3466C9.71947 25.4527 9.57513 25.5613 9.44469 25.5867C9.14694 25.6447 8.82614 25.6221 8.51668 25.5654C8.19604 25.5066 7.87864 25.4006 7.59945 25.2406C7.32069 25.0809 7.0412 24.9007 6.8937 24.6514C6.75149 24.4109 6.73028 24.0902 6.7227 23.7781C6.70995 23.253 6.78398 22.7156 6.95637 22.2225C7.09076 21.838 7.29334 21.467 7.5637 21.17C7.86195 20.8423 8.22346 20.5454 8.62824 20.4113C9.00691 20.2858 9.44561 20.2791 9.83213 20.3846C9.89459 20.4016 9.97576 20.4814 10.0667 20.5708C10.1121 20.6156 10.161 20.6618 10.2222 20.6962C10.2833 20.7306 10.3621 20.7518 10.4435 20.7345C10.5925 20.7029 10.7087 20.5971 10.7886 20.4733C10.8684 20.3495 10.9151 20.2044 10.9124 20.0639C10.9041 19.6317 10.5487 19.263 10.1935 19.0749C9.9076 18.9236 9.58178 18.8668 9.25581 18.8665ZM14.5325 18.9237C14.3964 18.922 14.2618 18.9272 14.1317 18.9364C13.8567 18.9559 13.5724 19.0371 13.3387 19.197C12.9123 19.4889 12.6097 19.932 12.3734 20.3708C12.2429 20.6131 12.1724 20.8822 12.1324 21.1457C12.096 21.386 12.0514 21.659 12.1359 21.9214C12.2069 22.1423 12.3599 22.3259 12.5248 22.4676C12.7437 22.6555 13.0144 22.7506 13.259 22.8436C13.5425 22.9514 13.8338 22.9852 14.0965 23.0633C14.3658 23.1433 14.6324 23.23 14.8943 23.3286C15.151 23.4253 15.4099 23.4831 15.5976 23.6217C15.7559 23.7385 15.9037 23.8831 15.9566 24.0434C16.0393 24.2934 16.0314 24.6069 15.9127 24.8312C15.7892 25.0646 15.517 25.2401 15.2468 25.3384C15.084 25.3976 14.8821 25.3831 14.6819 25.358C14.4759 25.3321 14.2705 25.2621 14.0722 25.1749C13.9068 25.1022 13.751 24.981 13.5717 24.876C13.5234 24.8477 13.4672 24.7965 13.4007 24.7474C13.3342 24.6983 13.2511 24.6481 13.1459 24.6458C12.9412 24.6415 12.7604 24.7616 12.6413 24.902C12.5084 25.0589 12.4813 25.2621 12.4639 25.4312C12.446 25.6038 12.4656 25.7821 12.5201 25.9472C12.5927 26.1657 12.7071 26.3831 12.8774 26.5513C13.06 26.7317 13.2955 26.8334 13.5131 26.9191C13.7704 27.0205 14.041 27.0672 14.3033 27.1039C14.5619 27.1401 14.8347 27.1759 15.1101 27.1429C15.4362 27.1038 15.7545 27.003 16.0486 26.8653C16.2801 26.757 16.5003 26.6138 16.6891 26.438C16.8558 26.2828 16.9955 26.0988 17.1052 25.9018C17.2409 25.658 17.3397 25.3913 17.3972 25.1187C17.4744 24.7526 17.4914 24.3728 17.4633 24.0027C17.4428 23.7314 17.3962 23.4522 17.2891 23.1918C17.1832 22.9342 17.035 22.6822 16.8317 22.4805C16.6533 22.3035 16.4311 22.182 16.2114 22.0881C15.9488 21.9759 15.6741 21.9532 15.4299 21.8912C15.1488 21.8199 14.8676 21.747 14.5867 21.6739C14.3178 21.604 14.0519 21.5706 13.8215 21.4745C13.7642 21.4506 13.7085 21.433 13.6669 21.4134C13.6253 21.3937 13.6022 21.3751 13.5919 21.3556C13.5579 21.2913 13.5854 21.1651 13.6253 21.0397C13.6787 20.8718 13.7809 20.7114 13.907 20.5831C14.0248 20.4634 14.1708 20.3638 14.3238 20.3154C14.4882 20.2635 14.68 20.266 14.865 20.2935C15.0128 20.3154 15.1618 20.3766 15.3062 20.4496C15.3387 20.466 15.3762 20.4994 15.4225 20.5392C15.4689 20.579 15.5262 20.6261 15.6067 20.6484C15.7597 20.6907 15.9638 20.7233 16.1283 20.6083C16.2718 20.5079 16.3449 20.334 16.3396 20.1655L16.3415 20.1623L16.3383 20.1289C16.2995 19.7458 16.0153 19.4158 15.7092 19.2205C15.3609 18.9984 14.9405 18.929 14.5325 18.9237ZM21.0955 18.9237C20.9595 18.922 20.8248 18.9272 20.6947 18.9364C20.4198 18.9559 20.1356 19.0371 19.9019 19.197C19.4755 19.4889 19.1727 19.932 18.9364 20.3708C18.8059 20.6131 18.7347 20.8822 18.6948 21.1457C18.6584 21.386 18.6143 21.659 18.6989 21.9214C18.77 22.1423 18.9231 22.3259 19.088 22.4676C19.307 22.6555 19.5768 22.7506 19.8214 22.8436C20.1049 22.9514 20.397 22.9852 20.6598 23.0633C20.9291 23.1433 21.1956 23.23 21.4575 23.3286C21.7142 23.4253 21.9729 23.4831 22.1607 23.6217C22.3189 23.7385 22.4667 23.8831 22.5197 24.0434C22.6023 24.2934 22.5944 24.6069 22.4757 24.8312C22.3522 25.0646 22.08 25.2401 21.8098 25.3384C21.647 25.3976 21.4451 25.3831 21.2449 25.358C21.0389 25.3321 20.8329 25.2621 20.6346 25.1749C20.4692 25.1022 20.3141 24.981 20.1347 24.876C20.0864 24.8477 20.0302 24.7965 19.9637 24.7474C19.8972 24.6983 19.8141 24.6481 19.7089 24.6458C19.5042 24.6415 19.3234 24.7616 19.2043 24.902C19.0714 25.0589 19.0444 25.2621 19.0269 25.4312C19.009 25.6038 19.0278 25.7821 19.0822 25.9472C19.1548 26.1657 19.2701 26.3831 19.4404 26.5513C19.623 26.7317 19.8585 26.8334 20.0761 26.9191C20.3334 27.0205 20.6042 27.0672 20.8665 27.1039C21.1251 27.1401 21.3971 27.1759 21.6724 27.1429C21.9986 27.1038 22.3175 27.003 22.6116 26.8653C22.8431 26.757 23.0636 26.6138 23.2523 26.438C23.419 26.2828 23.5585 26.0988 23.6682 25.9018C23.804 25.658 23.903 25.3913 23.9604 25.1187C24.0377 24.7526 24.0535 24.3728 24.0255 24.0027C24.0049 23.7314 23.9592 23.4522 23.8521 23.1918C23.7462 22.9342 23.598 22.6822 23.3947 22.4805C23.2163 22.3035 22.9942 22.182 22.7744 22.0881C22.5118 21.9759 22.2364 21.9532 21.9922 21.8912C21.7112 21.8199 21.4306 21.747 21.1497 21.6739C20.8808 21.604 20.6149 21.5706 20.3845 21.4745C20.3272 21.4506 20.2716 21.433 20.2299 21.4134C20.1883 21.3937 20.1655 21.375 20.1552 21.3556C20.1212 21.2913 20.1478 21.1651 20.1877 21.0397C20.2411 20.8718 20.3431 20.7114 20.4692 20.5831C20.5869 20.4634 20.7338 20.3638 20.8868 20.3154C21.0512 20.2635 21.2432 20.266 21.4282 20.2935C21.576 20.3154 21.7239 20.3766 21.8684 20.4496C21.9008 20.466 21.9394 20.4994 21.9858 20.5392C22.0321 20.579 22.0884 20.6261 22.1688 20.6484C22.3219 20.6907 22.5271 20.7233 22.6915 20.6083C22.8351 20.5079 22.9082 20.3339 22.9028 20.1653L22.9045 20.1623L22.9017 20.1324C22.9016 20.1312 22.9016 20.1301 22.9015 20.1289C22.8627 19.7458 22.5783 19.4158 22.2722 19.2205C21.9239 18.9984 21.5035 18.929 21.0955 18.9237Z" fill="#77BBFE"/>
</svg>
