<svg width="1227" height="600" viewBox="0 0 1227 600" fill="none" xmlns="http://www.w3.org/2000/svg">
<g clip-path="url(#clip0_1525_577)">
<path d="M776.717 411.56C776.196 439.65 775.492 514.172 805.5 503C810.316 501.207 818.806 495.213 818.806 495.213" stroke="#1E1C58" stroke-width="15.1181" stroke-linecap="round"/>
<path d="M758.046 427.942C758.046 427.942 773.232 416.92 780.267 410.732C793.334 399.24 812.728 378.168 817.242 373.877C819.533 371.699 822.545 370.217 825.595 369.386C827.442 368.883 829.571 368.417 831.333 369.165C832.791 369.783 833.947 371.222 834.501 372.706C835.256 374.728 834.404 379.183 834.404 379.183L826.43 406.583C826.43 406.583 839.895 413.175 846.316 417.026C849.05 418.666 851.717 420.438 854.228 422.404C861.15 427.825 870.167 432.044 873.854 440.025C874.934 442.365 875.591 445.682 874.057 447.754C872.173 450.298 868.061 450.069 864.903 450.286C860.6 450.58 856.336 449.261 852.079 448.57C846.559 447.673 835.601 445.416 835.601 445.416C835.601 445.416 839.595 462.333 840.173 470.628C840.521 475.613 841.829 480.808 840.467 485.616C840.002 487.258 839.162 489.046 837.697 489.922C835.926 490.982 833.489 491.048 831.527 490.413C825.975 488.614 822.441 483.068 818.205 479.054C812.991 474.112 810.325 471.775 803.361 463.427L785.029 477.244L758.046 427.942Z" fill="#36244B"/>
<path d="M767.507 439.319C767.507 439.319 781.628 428.67 788.506 422.51C796.202 415.618 811.738 398.203 811.738 398.203C811.738 398.203 807.03 420.657 807.193 421.879C807.365 423.175 808.2 426.392 809.843 427.794C811.503 429.209 814.006 430.161 816.161 429.493C818.316 428.825 820.23 425.004 820.23 425.004L823.422 418.328L843.932 432.82C843.932 432.82 826.953 432.327 825.32 432.79C824.047 433.151 821.423 435.036 820.737 437.578C820.081 440.012 819.983 442.845 820.722 447.001C821.971 454.031 824.053 464.746 824.053 464.746C824.053 464.746 807.989 447.027 806.87 446.736C805.75 446.444 798.3 450.305 793.736 452.777C789.172 455.248 779.967 461.654 779.967 461.654L767.507 439.319Z" fill="#9D68DC"/>
<path d="M365.501 537.841C365.501 537.841 350.256 536.226 342.977 533.98C327.199 529.112 312.008 522.008 297.927 513.386C273.184 498.234 252.011 477.884 229.709 459.326C212.413 444.933 196.556 428.828 178.867 414.92C168.34 406.643 155.554 398.68 142.506 393.36C130.34 388.401 118.719 384.673 104.213 384.029C91.4533 383.462 81.3315 384.518 70.4261 387.568C53.9766 392.17 37.592 398.988 24.0893 409.45C14.2753 417.053 -2.3478 432.968 0.277432 438.088C3.77593 444.912 22.1162 435.206 33.0993 435.192C44.403 435.179 56.051 435.36 66.8866 438.088C80.1956 441.439 93.1792 447.303 104.213 455.465C115.815 464.046 124.632 476.012 133.174 487.643C146.894 506.325 156.623 527.632 168.57 547.495C181.92 569.69 194.288 592.544 209.115 613.782C221.178 631.061 234.428 647.537 248.372 663.337C259.314 675.734 270.457 688.106 283.125 698.733C293.291 707.261 304.492 714.559 315.947 721.258C328.121 728.377 340.869 734.568 353.917 739.921C360.821 742.753 375.155 747 375.155 747C375.155 747 351.03 846.207 354.561 857.05C358.092 867.894 584.168 911.194 591.361 904.03C598.554 896.867 584.862 877.245 578.522 865.416C572.182 853.588 563.31 845.108 554.71 835.812C547.908 828.46 532.829 815.218 532.829 815.218L547.631 790.119C547.631 790.119 570.307 794.447 581.74 793.981C595.065 793.437 608.265 790.227 620.997 786.258C631.27 783.055 650.601 773.386 650.601 773.386C650.601 773.386 707.934 859.692 714.958 860.911C721.982 862.131 877.54 778.981 879.067 774.674C880.595 770.366 875.701 765.114 870.701 762.446C858.471 755.92 843.417 753.834 829.835 752.631C820.423 751.798 802.483 752.149 802.483 752.149C802.483 752.149 802.951 720.979 799.909 705.812C797.761 695.102 793.944 684.645 788.968 674.921C784.333 665.862 778.368 657.413 771.592 649.822C767.036 644.718 756.146 636.307 756.146 636.307L757.272 619.896L365.501 537.841Z" fill="#36244B"/>
<path opacity="0.98" d="M383.606 700.155L378.563 732.265C378.563 732.265 360.592 727.29 352.169 723.391C336.576 716.173 321.859 706.964 308.027 696.769C293.065 685.741 279.188 673.159 266.388 659.681C254.202 646.849 243.757 632.448 233.168 618.27C227.453 610.617 216.828 594.734 216.828 594.734L383.606 700.155Z" fill="#C3ABDF"/>
<path d="M546.022 665.267L542.16 680.713C542.16 680.713 538.044 676.325 535.403 676.53C532.445 676.758 529.885 679.626 528.645 682.322C527.749 684.271 528.214 686.656 528.645 688.757C529.795 694.359 533.568 699.109 535.403 704.525C537.923 711.966 540.222 719.575 541.195 727.371C542.138 734.928 541.856 742.631 541.195 750.218C540.495 758.246 539.166 766.264 537.012 774.03C534.616 782.668 531.883 791.391 527.358 799.129C523.705 805.377 513.522 815.862 513.522 815.862C513.522 815.862 518.682 821.644 521.244 824.55C525.77 829.681 530.193 834.901 534.759 839.995C540.688 846.61 547.246 852.676 552.779 859.624C559.266 867.77 570.477 885.367 570.477 885.367L552.779 882.471C552.779 882.471 537.894 854.19 525.749 844.5C523.57 842.761 520.788 840.893 518.027 841.283C515.986 841.57 513.919 843.213 513.2 845.144C512.172 847.904 513.693 851.106 514.809 853.832C518.73 863.414 532.185 879.575 532.185 879.575L516.096 876.035C516.096 876.035 509.972 861.312 505.477 854.797C502.33 850.236 500.819 844.968 495.824 842.57C493.013 841.22 488.835 839.869 486.492 841.926C483.714 844.365 486.894 851.346 489.066 855.441C492.214 861.378 498.72 873.139 498.72 873.139L373.868 845.787L406.368 674.277C406.368 674.277 406.598 668.29 405.081 665.911C404.041 664.28 402.178 662.886 400.254 662.693C397.717 662.439 394.966 663.774 393.175 665.589C390.502 668.296 388.992 676.208 388.992 676.208L383.606 700.155C359.555 697.137 337.926 686.024 316.457 675.706C297.542 666.615 279.167 655.95 262.68 642.966C248.107 631.489 234.931 618.075 223.406 603.54C209.495 585.994 199.343 565.971 187.877 546.529C178.138 530.016 169.65 512.75 159.238 496.653C152.189 485.753 144.815 474.994 136.392 465.118C129.993 457.616 123.254 450.261 115.476 444.202C108.873 439.058 101.476 434.922 93.9163 431.331C85.9783 427.56 77.7348 424.15 69.139 422.321C60.1992 420.419 50.9043 419.742 41.7874 420.39C36.2054 420.787 25.3765 423.93 25.3765 423.93C25.3765 423.93 43.3336 412.818 53.0498 408.806C64.4073 404.116 76.2049 399.58 88.446 398.509C99.3019 397.559 110.362 399.454 120.946 402.048C132.689 404.927 144.329 409.083 154.733 415.242C167.249 422.65 177.185 433.739 188.199 443.237C201.892 455.046 215.039 467.48 228.743 479.276C240.807 489.66 252.663 500.336 265.427 509.846C277.092 518.537 289.158 525.797 301.788 533.014C312.867 539.345 324.038 545.945 336.219 549.747C345.646 552.689 355.633 554.63 365.501 554.252C368.803 554.125 375.155 551.999 375.155 551.999L546.022 665.267Z" fill="#9D68DC"/>
<path d="M465.691 383.929C480.223 342.027 491.489 309.694 499.108 271.272C501.288 260.279 504.046 247.59 502.57 237.831C500.765 225.899 495.173 214.737 493.468 202.791C492.01 192.575 492.094 182.912 493.923 172.756C496.71 157.287 500.04 143.405 507.12 130.434C515.272 115.501 528.269 101.748 539.885 91.2983C547.719 84.2518 562.236 77.4456 572.195 74.0056C584.787 69.6564 588.914 69.8565 602.23 69.455C610.138 69.2165 620.927 68.9932 628.624 70.8202C634.846 72.2969 646.372 78.1013 646.372 78.1013C646.372 78.1013 677.879 61.8677 694.154 54.8927C722.434 42.7729 751.428 32.3098 780.618 22.5827C804.616 14.5855 828.276 3.87923 853.429 1.19444C872.031 -0.791108 891.728 -0.842296 909.402 5.29015C932.416 13.2754 952.968 28.7596 969.927 46.2465C979.8 56.4271 986.85 69.269 992.68 82.197C996.252 90.1176 999.642 98.5429 999.961 107.226C1000.5 121.794 995.357 146.272 991.315 148.637C987.274 151.003 953.999 132.71 953.999 132.71C953.999 132.71 940.736 177.177 934.159 179.052C927.582 180.927 902.953 171.032 890.745 161.835C890.745 161.835 882.966 200.193 876.637 203.246C870.308 206.299 832.041 182.768 832.041 182.768C832.041 182.768 829.391 218.79 823.684 222.52C817.977 226.25 779.924 206.188 779.924 206.188C779.924 206.188 769.354 244.728 763.78 247.388C758.206 250.048 717.135 223.497 717.135 223.497L699.16 229.185C699.16 229.185 707.786 239.003 713.267 242.382C721.111 247.218 730.051 250.894 739.206 251.939C764.299 254.802 789.494 246.771 814.376 242.437C866.708 233.323 959.706 204.667 969.927 207.797C980.148 210.927 981.675 255.122 977.208 278.333C975.233 288.593 967.842 306.004 956.275 312.918C919.05 335.168 876.876 350.396 835.226 363.886C796.265 376.505 715.542 391.645 715.542 391.645L727.286 430.526L465.254 435.332L465.691 383.929Z" fill="#36244B"/>
<path d="M681.492 389.499C680.907 386.707 680.791 383.689 682.217 381.374C683.789 378.82 687.189 376.879 689.859 376.628C700.26 375.647 709.661 375.739 719.463 374.375C739.194 371.63 758.722 367.381 778.027 362.469C797.164 357.6 815.918 351.306 834.661 345.093C859.522 336.852 884.579 328.98 908.671 318.707C920.585 313.626 932.917 308.903 943.424 301.33C949.454 296.984 955.63 292.087 959.192 285.563C961.611 281.131 962.025 275.795 962.409 270.761C963.604 255.117 959.513 223.78 959.513 223.78C959.513 223.78 875.777 245.959 833.374 254.672C803.976 260.712 773.587 269.006 743.597 267.865C729.689 267.335 715.572 263.968 703.052 257.89C693.015 253.017 682.794 248.134 677.631 238.904C675.318 234.768 674.698 229.19 676.344 224.746C678.11 219.98 682.5 215.841 687.285 214.127C711.463 205.465 736.397 199.659 760.329 190.637C834.632 162.627 978.82 95.7108 978.82 95.7108C978.82 95.7108 971.575 78.3474 965.949 70.9335C956.453 58.4198 944.289 47.9025 931.518 38.7551C921.726 31.7414 911.084 25.5229 899.662 21.7006C890.397 18.6003 880.47 17.1005 870.701 17.1957C856.436 17.3346 842.192 20.4307 828.548 24.5967C780.265 39.3384 736.647 55.9705 688.572 73.5077C679.469 76.8284 662.507 86.3791 662.507 86.3791C662.507 86.3791 674.837 95.6493 680.205 101.181C685.89 107.039 689.5 113.754 685.998 118.879C683.815 122.072 679.179 122.338 674.413 119.523C669.648 116.707 664.326 110.164 658.646 106.33C648.607 99.5519 638.259 92.4845 626.601 89.197C616.053 86.2224 604.701 86.3585 593.779 87.2663C583.865 88.0904 573.504 89.3098 564.685 93.9133C550.512 101.312 538.613 113.255 529.188 126.17C519.784 139.057 512.599 154.104 509.339 169.721C506.598 182.847 507.668 197.771 509.982 209.944C512.588 223.651 521.336 237.115 518.67 250.81C508.132 304.953 487.238 358.524 475.868 401.655L523.175 428.756L600.725 445.489L683.423 434.87C683.423 434.87 680.63 398.405 681.492 389.499Z" fill="#9D68DC"/>
<path d="M734.646 217.471L757.295 231.198L764.512 206.97L734.646 217.471Z" fill="white"/>
<path d="M791.26 197.256L814.711 206.726L817.124 185.167L791.26 197.256Z" fill="white"/>
<path d="M846.328 172.994L870.701 185.81L876.171 159.746L846.328 172.994Z" fill="white"/>
<path d="M899.484 150.037L928.461 163.768L939.08 131.911L899.484 150.037Z" fill="white"/>
<path d="M962.57 120.81L981.234 129.176L983.647 111.8L962.57 120.81Z" fill="white"/>
<path d="M593.324 438.088C593.324 438.088 594.77 432.086 596.22 429.4C599.92 422.546 604.707 416.035 610.7 411.059C618.156 404.867 627.408 401.052 636.443 397.544C644.3 394.492 652.587 392.514 660.898 391.108C667.687 389.959 676.821 389.664 681.492 389.499C682.141 392.471 684.579 394.284 686.882 394.648C689.222 395.017 696.363 394.041 699.19 393.602L706.913 422.643L656.393 439.697L593.324 438.088Z" fill="#C3ABDF"/>
<path d="M959.51 223.78C959.51 223.78 875.78 245.962 833.377 254.675C803.979 260.716 773.584 269.007 743.594 267.865C740.931 267.763 738.266 267.527 735.601 267.218C740.342 270.98 746.426 275.38 747.462 275.587C749.071 275.909 766.338 279.031 775.775 278.161C787.204 277.108 797.444 269.142 808.917 268.832C815.291 268.66 821.256 273.799 827.582 273.013C839.388 271.547 847.827 259.516 859.437 256.922C870.642 254.419 882.749 260.759 893.866 257.889C903.876 255.305 910.576 244.731 920.58 242.125C929.302 239.854 939.005 245.454 947.607 242.765C951.65 241.501 956.739 237.638 960.683 234.282C960.066 228.425 959.51 223.78 959.51 223.78Z" fill="#6F5193"/>
<path d="M819.64 27.389C808.055 31.0226 796.685 34.7673 785.453 38.6022C787.854 43.4832 792.074 51.5979 795.727 55.8095C797.78 58.1759 800.133 60.6897 803.129 61.6046C806.009 62.4839 809.541 62.4815 812.138 60.9575C815.679 58.8796 817.695 54.5882 818.893 50.6615C820.794 44.4338 820.17 33.453 819.64 27.389Z" fill="#6F5193"/>
<path d="M776.422 41.6882C762.27 46.6039 748.189 51.7083 734.016 56.8833C735.884 59.9201 739.484 65.6322 742.633 68.9996C745.917 72.5109 750.648 74.4719 753.896 78.0156C757.294 81.7214 758.337 87.4197 762.258 90.5656C765.04 92.7967 768.739 95.1301 772.234 94.4266C776.176 93.6334 779.095 89.6385 780.923 86.0576C784.075 79.8833 783.775 72.3978 783.817 65.4657C783.844 61.2483 783.529 56.9215 782.21 52.9157C781.116 49.5933 778.637 45.2625 776.422 41.6882Z" fill="#6F5193"/>
<path d="M711.39 65.1384C703.828 67.9163 696.328 70.6783 688.573 73.5075C683.94 75.1972 677.387 78.4423 671.956 81.2792C675.214 82.695 680.107 84.931 683.425 87.3444C691.03 92.8772 695.495 102.166 703.377 107.296C707.617 110.057 712.676 114.18 717.534 112.764C719.964 112.056 721.768 109.167 722.035 106.649C722.802 99.393 714.784 93.7865 713.026 86.7045C711.572 80.8488 711.384 70.77 711.39 65.1384Z" fill="#6F5193"/>
<path d="M599.35 86.9321C597.488 87.0298 595.62 87.113 593.776 87.2663C586.546 87.8674 579.087 88.6978 572.153 90.8785C573.749 94.2822 575.88 98.4882 578.111 101.082C580.97 104.405 584.221 108.565 588.578 109.046C591.648 109.384 594.666 107.204 596.997 105.178C599.648 102.872 602.454 99.8097 602.685 96.3038C602.864 93.5985 601.122 89.9224 599.35 86.9321Z" fill="#6F5193"/>
<path d="M561.793 95.5713C553.952 100.106 546.823 105.969 540.483 112.608C542.666 114.791 545.441 117.843 548.304 119.285C552.331 121.312 557.461 124.242 561.501 122.243C565.242 120.391 566.559 115.036 566.735 110.866C566.924 106.387 563.878 99.6737 561.793 95.5713Z" fill="#6F5193"/>
<path d="M508.429 199.406C508.823 203.06 509.345 206.608 509.979 209.943C512.585 223.65 521.333 237.112 518.668 250.807C508.343 303.855 488.133 356.292 476.624 398.961L497.109 413.63C497.109 413.63 494.033 389.142 499.683 379.521C501.192 376.951 505.251 376.432 507.405 374.373C510.265 371.638 510.82 369.487 511.913 365.684C514.135 357.952 511.252 349.589 511.593 341.551C511.871 334.982 510.513 327.773 513.52 321.926C515.084 318.884 518.577 317.308 521.242 315.164C527.995 309.732 537.164 306.802 542.161 299.72C546.425 293.676 548.774 285.876 548.596 278.481C548.358 268.578 543.01 259.368 538.62 250.487C533.121 239.366 524.461 230.068 518.348 219.272C515.209 213.729 511.422 205.815 508.429 199.406Z" fill="#6F5193"/>
<path d="M532.377 325.432C529.874 325.345 527.5 327.595 526.233 329.755C523.996 333.57 523.939 338.629 524.868 342.952C525.661 346.641 527.195 351.025 530.557 352.736C533.206 354.086 537.103 353.677 539.43 351.826C541.815 349.931 542.232 346.222 542.388 343.18C542.596 339.138 541.8 334.782 539.658 331.348C538.003 328.695 535.502 325.54 532.377 325.432Z" fill="#6F5193"/>
<path d="M502.797 410.985C502.797 410.985 500.838 401.856 502.115 397.561C502.997 394.594 504.863 391.542 507.575 390.052C509.707 388.882 512.611 388.665 514.857 389.597C517.189 390.565 518.793 392.997 519.862 395.285C521.129 397.997 521.279 401.167 521.228 404.159C521.178 407.015 520.993 410.066 519.635 412.578C518.283 415.079 513.491 418.494 513.491 418.494L502.797 410.985Z" fill="#6F5193"/>
<path d="M524.641 170.481C519.946 171.481 518.393 178.137 517.132 182.768C515.936 187.159 515.529 192.253 517.36 196.42C519.042 200.251 522.417 203.989 526.461 205.066C529.554 205.89 533.444 204.968 535.79 202.791C537.952 200.784 538.823 197.307 538.52 194.372C538.207 191.331 535.024 189.278 533.97 186.408C532.692 182.932 533.942 178.591 531.922 175.487C530.315 173.018 527.521 169.867 524.641 170.481Z" fill="#6F5193"/>
<path d="M727.829 72.5425C725.165 74.1793 723.328 77.4769 723.003 80.5871C722.661 83.8596 725.39 86.735 726.22 89.9188C727.595 95.1917 726.754 101.098 729.117 106.008C730.6 109.09 732.669 112.535 735.874 113.731C739.527 115.093 744.24 114.322 747.458 112.122C750.907 109.764 753.266 105.348 753.572 101.181C753.992 95.4594 750.311 90.0697 747.458 85.092C744.651 80.1942 742.015 74.1538 736.839 71.8989C734.079 70.6962 730.395 70.9666 727.829 72.5425Z" fill="#6F5193"/>
<path d="M799.909 75.4387C796.549 77.0851 795.25 81.7043 794.76 85.414C794.43 87.9169 794.601 91.0123 796.369 92.815C797.99 94.4683 800.817 94.2584 803.127 94.4239C805.49 94.5933 808.556 95.4809 810.206 93.7804C812.675 91.2354 811.366 86.6698 810.849 83.1615C810.533 81.0128 810.257 78.4476 808.597 77.0476C806.345 75.1492 802.554 74.1428 799.909 75.4387Z" fill="#6F5193"/>
<path d="M700.156 115.34C695.641 116.654 691.761 120.886 690.18 125.315C689.093 128.361 689.48 132.197 691.146 134.969C692.541 137.289 695.204 139.676 697.903 139.473C701.083 139.235 703.346 135.775 704.983 133.038C706.117 131.14 707.063 128.763 706.592 126.602C706.299 125.26 704.555 124.648 704.017 123.384C703.043 121.095 704.731 117.819 703.052 115.983C702.384 115.254 701.105 115.063 700.156 115.34Z" fill="#6F5193"/>
<path d="M851.716 43.9039C849.429 44.0749 846.778 43.7966 844.958 45.191C841.836 47.5834 839.372 51.9006 839.81 55.8099C840.269 59.905 843.968 63.396 847.533 65.4633C850.538 67.2061 854.358 67.1874 857.83 67.0723C862.225 66.9264 867.077 66.6668 870.701 64.1762C873.888 61.986 876.14 58.2594 877.137 54.5227C877.968 51.4067 878.805 47.1179 876.493 44.8692C870.569 39.106 859.958 43.2875 851.716 43.9039Z" fill="#6F5193"/>
<path d="M588.819 143.335C587.21 143.294 572.341 150.937 566.938 157.815C561.656 164.539 559.332 173.468 558.249 181.949C557.063 191.245 557.837 201.062 560.824 209.944C563.281 217.251 567.555 224.168 573.051 229.573C577.511 233.958 583.073 237.71 589.141 239.226C597.372 241.284 606.573 240.797 614.562 237.939C623.227 234.839 631.785 229.268 636.765 221.528C642.637 212.399 643.94 200.519 643.522 189.672C643.156 180.175 640.624 170.309 635.477 162.32C630.412 154.456 622.965 147.351 614.24 143.978C606.333 140.923 588.819 143.335 588.819 143.335Z" fill="#6F5193"/>
<path d="M730.404 287.172C726.443 288.536 721.859 286.27 718.176 284.276C715.574 282.867 712.106 281.098 711.74 278.162C711.442 275.77 713.373 272.968 715.602 272.048C719.161 270.579 723.514 272.723 726.864 274.622C729.966 276.381 734.106 278.783 734.265 282.345C734.357 284.404 732.352 286.501 730.404 287.172Z" fill="#6F5193"/>
<path d="M794.438 286.85C792.228 287.897 789.917 290.197 789.933 292.642C789.949 294.703 792.003 296.451 793.795 297.469C796.525 299.02 800.239 299.991 803.127 298.756C805.316 297.82 806.64 295.25 807.31 292.964C807.853 291.109 808.376 288.519 806.988 287.172C803.985 284.258 798.221 285.06 794.438 286.85Z" fill="#6F5193"/>
<path d="M857.83 264.004C855.833 265.252 853.614 267.862 854.29 270.118C855.116 272.875 859.144 274.204 862.013 273.979C864.773 273.762 867.914 271.785 868.77 269.152C869.4 267.217 868.532 264.49 866.84 263.36C864.336 261.688 860.383 262.408 857.83 264.004Z" fill="#6F5193"/>
<path d="M92.523 398.278C91.161 398.311 89.8057 398.387 88.4487 398.506C77.0957 399.499 66.1414 403.5 55.5486 407.813C63.2239 407.043 76.2384 406.114 83.9051 408.026C92.4682 410.163 99.1126 424.493 107.114 420.768C109.217 419.789 108.891 416.226 108.479 413.942C107.814 410.255 100.298 407.37 102.563 404.386C106.191 399.606 115.047 405.802 119.856 409.392C125.487 413.595 124.927 424.039 131.232 427.139C134.375 428.685 139.239 428.721 141.699 426.229C144.584 423.307 139.038 415.971 142.609 413.942C147.623 411.094 153.967 417.639 158.082 421.679C166.021 429.474 168.463 441.364 173.554 451.258C180.01 463.805 180.646 481.64 192.667 489.029C196.027 491.094 200.88 490.597 204.499 489.029C207.551 487.706 208.001 481.886 211.325 481.748C217.656 481.485 221.942 489.201 225.432 494.49C234.705 508.544 237.842 525.91 241.815 542.272C243.044 547.338 241.364 553.301 244.09 557.745C246.423 561.547 250.553 565.33 255.012 565.481C264.606 565.806 270.112 548.909 279.585 550.463C287.98 551.841 291.456 562.819 295.968 570.031C301.874 579.472 304.198 590.795 309.62 600.521C312.119 605.004 313.539 611.264 318.266 613.263C323.09 615.302 329.246 613.225 333.739 610.533C340.689 606.369 341.614 595.246 348.756 591.42C353.853 588.689 360.385 588.893 366.049 590.055C372.762 591.432 377.48 598.557 384.252 599.611C392.014 600.819 407.46 595.515 407.46 595.515L392.5 563.497L375.157 551.999C375.157 551.999 368.803 554.127 365.501 554.253C355.633 554.631 345.647 552.687 336.22 549.745C324.039 545.944 312.87 539.345 301.791 533.014C289.161 525.797 277.094 518.54 265.428 509.848C252.665 500.338 240.809 489.657 228.746 479.273C215.041 467.477 201.895 455.047 188.202 443.238C177.188 433.739 167.248 422.652 154.733 415.244C144.328 409.085 132.687 404.925 120.944 402.047C111.683 399.776 102.057 398.04 92.523 398.278Z" fill="#6F5193"/>
<path d="M352.397 597.337C350.595 598.614 349.848 601.622 350.576 603.708C351.867 607.403 356.521 609.023 360.133 610.534C363.4 611.9 367.678 614.355 370.599 612.354C373.152 610.605 373.842 606 372.42 603.252C370.36 599.272 364.488 598.85 360.133 597.792C357.623 597.181 354.504 595.842 352.397 597.337Z" fill="#6F5193"/>
<path d="M278.22 560.476C276.612 558.365 272.238 565.894 271.849 569.577C271.399 573.836 274.076 578.151 276.855 581.409C278.712 583.586 281.381 586.735 284.136 585.96C286.422 585.316 286.996 581.94 287.322 579.589C287.767 576.376 286.822 572.993 285.501 570.032C283.87 566.375 278.22 560.476 278.22 560.476Z" fill="#6F5193"/>
<path d="M211.78 494.491C208.431 496.623 210.235 502.356 210.415 506.322C210.583 510.037 210.05 514.625 212.69 517.244C214.886 519.423 219.239 520.813 221.791 519.064C224.713 517.063 224.015 512.116 223.612 508.598C223.124 504.343 221.75 499.673 218.606 496.766C216.845 495.138 213.803 493.202 211.78 494.491Z" fill="#6F5193"/>
<path d="M148.07 423.955C144.613 426.93 146.695 433.07 147.16 437.607C147.449 440.426 147.38 443.847 149.435 445.798C151.464 447.724 157.626 449.439 157.626 447.618C157.626 445.798 161.435 439.823 160.812 435.787C160.125 431.337 157.387 426.734 153.531 424.41C151.966 423.467 149.455 422.763 148.07 423.955Z" fill="#6F5193"/>
<path d="M465.691 383.93C465.691 383.93 451.161 419.903 438.936 445.498C426.95 470.592 419.378 487.701 412.957 499.404C410.97 503.026 407.89 506.817 404.588 509.797C401.465 512.614 398.077 514.24 394.002 516.66C388.626 519.853 382.508 521.655 376.533 523.498C369.977 525.521 357.687 526.414 356.471 528.098C355.254 529.781 363.786 544.925 368.26 552.918C375.941 566.64 384.188 580.164 394.002 592.451C403.199 603.966 413.473 614.743 424.801 624.17C433.294 631.238 442.659 637.31 452.383 642.559C464.104 648.885 476.487 654.083 489.158 658.188C504.859 663.274 521.162 666.414 537.426 669.221C550.349 671.451 563.412 672.98 576.5 673.816C591.028 674.745 605.62 674.752 620.17 674.277C632.304 673.881 644.45 673.121 656.484 671.52C670.247 669.688 684.073 667.604 697.398 663.705C706.902 660.925 716.228 657.307 724.979 652.672C731.513 649.21 737.688 644.996 743.367 640.26C750.773 634.083 763.594 619.574 763.594 619.574L755.549 520.51L752.857 501.977L785.029 477.244C785.029 477.244 779.791 455.697 774.27 446.262C770.149 439.222 758.045 427.941 758.045 427.941L742.41 437.197C741.363 431.591 740.279 425.868 739.23 420.527C738.453 416.571 736.435 409.893 731.645 411.104C721.715 413.613 712.156 417.948 702.225 420.758C686.99 425.068 671.696 429.534 656.025 431.791C638.409 434.328 620.481 435.365 602.701 434.549C588.782 433.91 574.933 431.591 561.33 428.572C546.328 425.243 531.387 421.145 517.199 415.242C505.14 410.225 493.734 403.649 482.723 396.625C476.753 392.817 465.691 383.93 465.691 383.93Z" fill="#1E1C58"/>
<path d="M447.177 501.874L460.666 478.958L477.731 490.66C477.731 490.66 482.341 492.749 484.439 491.876C487.399 490.646 489.81 487.161 489.893 483.957C489.956 481.493 486.02 477.658 486.02 477.658L453.608 454.031L473.473 408.552C473.473 408.552 490.094 421.329 499.347 426.137C513.358 433.418 528.45 438.633 543.654 442.894C559.109 447.225 575.005 450.23 590.983 451.749C607.604 453.329 624.443 453.503 641.069 451.979C655.616 450.645 669.948 447.329 684.127 443.813C698.737 440.191 727.286 430.526 727.286 430.526C727.286 430.526 735.708 491.902 739.222 522.675C742.58 552.074 747.964 611.014 747.964 611.014C747.964 611.014 734.511 626.589 725.899 631.93C712.097 640.489 695.955 644.936 680.159 648.709C662.976 652.813 645.176 654.193 627.525 654.915C606.077 655.791 584.492 655.082 563.168 652.616C541.914 650.158 520.566 646.736 500.191 640.205C484.649 635.222 469.628 628.321 455.601 619.978C441.403 611.535 427.48 602.04 416.067 590.098C401.905 575.281 381.246 539.417 381.246 539.417L394.462 535.395L421.813 566.194C421.813 566.194 426.292 568.665 428.709 568.493C430.247 568.384 431.964 567.689 432.846 566.424C434.036 564.717 434.115 562.218 433.535 560.218C433.126 558.805 430.777 556.771 430.777 556.771L403.426 531.028L411.011 525.397L435.604 548.037C435.604 548.037 441.674 554.352 445.717 555.162C447.795 555.578 450.336 555.187 451.923 553.783C453.811 552.113 455.063 549.102 454.451 546.658C453.595 543.238 447.776 540.736 446.637 539.532C436.335 532.489 430.484 527.729 419.285 518.846L429.398 507.814L457.21 524.822C457.21 524.822 462.303 526.284 464.335 525.052C466.298 523.862 467.244 521.141 467.323 518.846C467.379 517.197 467.281 516.287 465.484 514.249C461.172 509.36 447.177 501.874 447.177 501.874Z" fill="#3B37B6"/>
<path d="M539.841 497.729C533.495 499.389 527.816 503.42 522.939 507.806C516.896 513.24 511.891 520.013 508.311 527.309C504.896 534.271 502.852 542.016 502.135 549.737C501.387 557.8 501.012 566.487 504.165 573.945C506.655 579.837 511.692 584.521 516.763 588.418C521.834 592.316 527.827 595.159 533.99 596.87C541.325 598.906 549.377 600.735 556.744 598.82C561.427 597.603 566.12 594.741 568.771 590.694C570.401 588.205 571.119 584.803 570.396 581.917C569.831 579.662 568.298 577.031 566.043 576.467C561.853 575.419 558.382 580.766 554.144 581.592C550.12 582.376 545.88 582.062 541.847 581.323C537.644 580.553 533.472 579.166 529.765 577.042C526.186 574.991 522.402 572.62 520.302 569.07C518.267 565.63 518.045 561.308 517.948 557.312C517.782 550.488 518.736 543.504 520.988 537.06C522.747 532.031 525.394 527.158 528.98 523.218C532.863 518.953 537.614 515.015 543.088 513.201C548.178 511.514 553.997 511.426 559.17 512.836C561.877 513.574 563.58 517.854 566.325 517.272C569.17 516.669 571.292 512.969 571.237 510.062C571.146 505.325 566.979 500.846 562.792 498.629C556.026 495.047 547.032 495.907 539.841 497.729Z" fill="#77BBFE"/>
<path d="M644.67 516.745C644.237 512.468 640.899 508.492 637.275 506.181C631.778 502.675 624.519 502.308 618.016 502.768C614.718 503.001 611.318 503.988 608.589 505.856C603.443 509.378 599.682 514.83 596.725 520.321C595.165 523.217 594.293 526.494 593.8 529.747C593.337 532.8 592.854 536.071 593.8 539.011C594.596 541.487 596.377 543.655 598.35 545.349C600.887 547.528 604.164 548.712 607.289 549.9C610.691 551.194 614.364 551.627 617.853 552.663C621.302 553.688 624.726 554.808 628.092 556.076C631.228 557.257 634.661 557.987 637.356 559.977C639.46 561.53 641.574 563.507 642.395 565.99C643.553 569.494 643.47 573.78 641.744 577.042C639.937 580.459 636.189 582.796 632.556 584.117C630.11 585.007 627.337 584.767 624.755 584.443C621.949 584.09 619.217 583.143 616.629 582.005C614.32 580.99 612.305 579.408 610.129 578.134C608.546 577.207 607.193 575.429 605.359 575.389C603.338 575.345 601.282 576.638 599.976 578.18C598.613 579.787 598.242 582.097 598.025 584.193C597.818 586.199 598.04 588.293 598.675 590.206C599.548 592.834 600.931 595.412 602.901 597.358C604.99 599.421 607.808 600.669 610.54 601.746C613.645 602.969 616.986 603.558 620.291 604.021C623.568 604.48 626.92 604.902 630.205 604.509C634.188 604.032 638.112 602.796 641.745 601.096C644.575 599.771 647.258 598.025 649.546 595.895C651.552 594.027 653.25 591.789 654.584 589.394C656.244 586.413 657.456 583.143 658.16 579.805C659.111 575.291 659.321 570.59 658.972 565.99C658.717 562.621 658.145 559.201 656.859 556.076C655.562 552.921 653.755 549.865 651.334 547.462C649.242 545.387 646.566 543.906 643.857 542.749C640.776 541.433 637.353 541.135 634.106 540.311C630.527 539.403 626.953 538.477 623.379 537.548C620.073 536.689 616.618 536.263 613.465 534.948C612.187 534.415 610.537 534.059 609.89 532.835C609.103 531.347 609.705 529.4 610.215 527.797C610.967 525.433 612.376 523.227 614.115 521.458C615.738 519.808 617.759 518.417 619.966 517.72C622.345 516.969 624.975 517.029 627.442 517.395C629.544 517.707 631.56 518.549 633.456 519.508C634.743 520.159 635.641 521.561 637.031 521.946C638.81 522.438 641.045 522.678 642.557 521.621C644.009 520.605 644.848 518.507 644.67 516.745Z" fill="#77BBFE"/>
<path d="M717.267 512.196C716.834 507.919 713.497 503.943 709.873 501.631C704.376 498.126 697.117 497.759 690.613 498.219C687.315 498.452 684 499.568 681.187 501.307C678.396 503.031 675.869 505.44 674.264 508.301C672.198 511.985 671.616 516.396 671.224 520.601C670.908 523.986 671.019 527.475 671.798 530.784C672.412 533.388 673.403 535.988 674.97 538.157C676.613 540.431 678.927 542.193 681.266 543.742C684.093 545.614 687.263 546.957 690.451 548.114C693.727 549.303 697.253 549.668 700.575 550.722C703.762 551.734 707.562 551.941 709.954 554.278C712.565 556.83 713.78 560.789 714.073 564.429C714.316 567.452 714.002 570.982 712.043 573.297C710.201 575.475 706.968 576.25 704.133 576.561C699.891 577.025 695.581 575.674 691.525 574.353C688.905 573.5 686.851 570.945 684.106 570.711C682.335 570.561 680.174 570.892 678.99 572.218C677.49 573.899 677.42 576.66 677.824 578.877C678.32 581.601 680.08 584.082 682.05 586.028C684.139 588.091 686.956 589.339 689.688 590.416C692.794 591.64 696.142 592.173 699.44 592.691C701.842 593.069 704.286 593.481 706.711 593.294C709.595 593.071 712.549 592.532 715.147 591.26C717.476 590.119 719.458 588.302 721.224 586.404C722.921 584.581 724.278 582.441 725.458 580.247C726.818 577.72 728.104 575.077 728.689 572.267C729.612 567.833 729.252 563.207 729.042 558.683C728.917 555.975 728.994 553.159 728.078 550.607C726.926 547.396 724.784 544.574 722.552 541.993C721.024 540.226 719.233 538.648 717.26 537.395C714.684 535.759 711.77 534.694 708.887 533.693C705.399 532.482 701.683 532.039 698.161 530.93C694.756 529.859 690.363 529.966 688.132 527.181C686.503 525.147 686.309 521.933 687.058 519.437C687.857 516.774 690.056 514.372 692.564 513.171C694.814 512.093 697.573 512.48 700.04 512.846C702.142 513.157 704.158 514 706.054 514.958C707.341 515.609 708.239 517.012 709.629 517.396C711.408 517.888 713.643 518.129 715.155 517.071C716.607 516.056 717.446 513.958 717.267 512.196Z" fill="#77BBFE"/>
<path d="M428.539 507.103L456.717 456.293L360.904 380.075C360.904 380.075 356.958 377.437 354.928 378.007C352.728 378.624 351.288 381.126 350.561 383.293C349.44 386.638 351.021 393.866 351.021 393.866L356.537 412.713C356.537 412.713 318.276 420.89 301.374 430.182C299.182 431.387 296.628 432.715 295.628 435.008C294.402 437.821 294.5 441.09 295.927 443.559C296.826 445.114 298.876 445.642 300.501 446.409C312.329 451.989 337.69 458.912 337.69 458.912L329.186 486.034C329.186 486.034 327.142 493.492 328.496 496.837C329.351 498.948 331.417 500.643 333.553 501.434C336.069 502.365 339.028 501.974 341.597 501.204C346.343 499.782 354.239 493.389 354.239 493.389L369.179 480.978C369.179 480.978 373.066 477.986 375.385 477.76C377.291 477.574 380.901 479.369 380.901 479.369L428.539 507.103Z" fill="#36244B"/>
<path d="M435.374 494.768L449.639 469.025L368.719 405.818C368.719 405.818 374.321 429.285 373.983 430.446C373.644 431.606 371.649 434.498 369.604 434.951C367.294 435.462 363.646 433.414 362.973 432.422C362.3 431.431 359.066 425.585 359.066 425.585L321.601 438.916C321.601 438.916 346.127 446.646 347.861 447.305C349.594 447.964 352.133 449.397 353.434 451.27C354.532 452.849 355.303 455.072 354.928 456.844C354.554 458.615 347.803 478.219 347.803 478.219C347.803 478.219 367.637 462.035 368.949 461.44C370.261 460.846 372.918 460.336 374.925 460.521C378.158 460.819 382.697 462.983 384.119 463.739C385.541 464.495 435.374 494.768 435.374 494.768Z" fill="#9D68DC"/>
<path opacity="0.98" d="M602.685 221.448C617.011 221.448 628.624 207.085 628.624 189.366C628.624 171.647 617.011 157.283 602.685 157.283C588.359 157.283 576.746 171.647 576.746 189.366C576.746 207.085 588.359 221.448 602.685 221.448Z" fill="#36244B"/>
<path d="M863.944 54.5226C872.474 54.5226 879.389 50.2005 879.389 44.8691C879.389 39.5376 872.474 35.2156 863.944 35.2156C855.413 35.2156 848.498 39.5376 848.498 44.8691C848.498 50.2005 855.413 54.5226 863.944 54.5226Z" fill="#36244B"/>
<path d="M598.713 210.87C600.453 209.301 600.049 206.016 597.809 203.532C595.57 201.049 592.344 200.307 590.604 201.876C588.863 203.445 589.268 206.73 591.507 209.214C593.747 211.698 596.973 212.439 598.713 210.87Z" fill="white" fill-opacity="0.969697"/>
<path d="M616.884 185.918C619.762 183.134 618.442 177.102 613.937 172.446C609.432 167.79 603.447 166.273 600.57 169.058C597.692 171.842 599.012 177.873 603.517 182.529C608.022 187.185 614.007 188.702 616.884 185.918Z" fill="white" fill-opacity="0.969697"/>
<path d="M745.136 451.97L758.316 443.651C758.316 443.651 763.523 449.946 765.402 453.54C768.171 458.836 771.412 470.43 771.412 470.43L750.545 486.061L745.136 451.97Z" fill="#3B37B6"/>
<path d="M1173.8 93.2559C1167.03 93.2559 1161.21 95.7907 1156.52 99.4922C1151.83 103.194 1147.86 107.848 1142.7 113.268C1132.41 124.087 1117.5 138.393 1086.33 154.111C1016.56 184.384 940.557 185.168 864.492 184.43C864.47 184.43 864.448 184.43 864.426 184.43C848.855 184.43 835.075 193.428 825.576 206.943C816.077 220.459 810.457 238.657 810.457 258.699C810.457 278.741 816.077 296.93 825.576 310.445C831.683 319.134 839.564 325.938 848.547 329.703L836.324 372.705C828.338 373.199 821.094 378.638 818.795 386.725L817.338 391.85C815.039 399.935 818.34 408.373 824.871 412.994L806.313 478.283C804.844 483.449 805.662 488.762 808.143 493.133C806.002 494.397 803.79 495.571 802.877 495.908C800.537 496.773 800.174 496.473 799.77 496.262C799.365 496.05 798.324 495.155 797.223 492.74C795.021 487.911 793.426 478.252 792.557 467.518C791.688 456.783 791.312 444.868 790.268 434.217C789.223 423.566 788.251 414.278 782.746 407C781.272 405.05 778.945 403.934 776.502 404.004C774.931 404.049 773.414 404.583 772.16 405.531C768.832 408.049 768.175 412.788 770.691 416.117C771.961 417.795 774.247 425.793 775.217 435.686C776.187 445.578 776.579 457.473 777.49 468.734C778.402 479.996 779.6 490.523 783.469 499.008C785.403 503.25 788.219 507.293 792.772 509.668C797.324 512.043 803.013 511.974 808.117 510.088C811.765 508.74 815.101 506.662 818.002 504.826C819.29 504.011 820.367 503.289 821.262 502.686L837.893 507.414C848.119 510.321 858.933 504.295 861.84 494.068L907.654 332.898C969.117 333.582 1029.77 338.745 1086.33 363.285C1117.5 379.004 1132.41 393.31 1142.7 404.129C1147.86 409.548 1151.83 414.203 1156.52 417.904C1161.21 421.606 1167.03 424.135 1173.8 424.135C1183.11 424.135 1190.9 417.872 1197.09 408.941C1203.28 400.011 1208.43 387.837 1212.78 373.021C1221.46 343.389 1226.7 303.156 1226.7 258.699C1226.7 214.242 1221.46 173.999 1212.78 144.367C1208.43 129.551 1203.28 117.378 1197.09 108.447C1190.9 99.5169 1183.11 93.2559 1173.8 93.2559Z" fill="#1E1C58"/>
<path d="M1173.94 105.736C1170.46 105.839 1165.99 108.579 1161.1 115.777C1156.17 123.022 1151.34 134.193 1147.3 148.184C1142.33 165.365 1138.48 186.804 1136.25 210.809C1146.5 210.855 1156.36 210.814 1162.13 210.742C1162.16 210.742 1162.18 210.742 1162.21 210.742C1162.91 210.742 1163.58 210.797 1164.24 210.873C1164.63 210.833 1165.02 210.805 1165.43 210.805C1169.84 210.805 1173.5 213.292 1176.04 216.252C1178.58 219.212 1180.44 222.864 1181.98 227.111C1184.5 234.061 1185.83 242.925 1186.33 252.461H1186.78V258.699V264.936H1186.33C1185.83 274.471 1184.5 283.328 1181.98 290.277C1180.44 294.525 1178.58 298.184 1176.04 301.145C1173.5 304.105 1169.84 306.592 1165.43 306.592C1165.02 306.592 1164.62 306.562 1164.23 306.521C1163.58 306.597 1162.91 306.652 1162.21 306.652C1162.18 306.653 1162.16 306.653 1162.13 306.652C1156.36 306.58 1146.49 306.54 1136.25 306.586C1138.48 330.583 1142.32 352.016 1147.29 369.195C1151.34 383.185 1156.17 394.358 1161.09 401.606C1165.98 408.81 1170.46 411.556 1173.93 411.66C1177.48 411.593 1181.92 408.93 1186.84 401.84C1191.82 394.658 1196.71 383.51 1200.81 369.516C1209.02 341.527 1214.23 302.168 1214.23 258.699C1214.23 215.23 1209.02 175.862 1200.81 147.873C1196.71 133.879 1191.82 122.739 1186.84 115.557C1181.93 108.469 1177.48 105.805 1173.94 105.736ZM1007.1 189.619C965.616 196.404 923.347 197.24 881.451 197.029C871.193 210.544 863.93 233.059 863.93 258.697C863.93 284.338 871.194 306.853 881.453 320.367C923.494 320.155 965.911 320.994 1007.54 327.842C1004.2 322.878 1001.36 317.174 998.976 310.988C993.118 295.813 989.959 277.436 989.959 258.697C989.959 239.992 992.962 221.662 998.668 206.516C1001 200.316 1003.8 194.595 1007.1 189.619ZM1150.47 223.225C1145.59 223.245 1141.12 223.262 1135.33 223.236C1134.55 234.867 1134.07 246.729 1134.07 258.691V258.697V258.699C1134.07 270.662 1134.55 282.525 1135.33 294.156C1141.12 294.131 1145.59 294.149 1150.47 294.17C1149.9 292.933 1149.37 291.639 1148.87 290.278C1148.78 290.032 1148.71 289.765 1148.62 289.516C1148.56 289.335 1148.49 289.168 1148.42 288.985C1148.33 288.692 1148.24 288.376 1148.14 288.078C1147.95 287.472 1147.76 286.861 1147.58 286.233C1147.45 285.781 1147.32 285.318 1147.2 284.856C1147.01 284.153 1146.83 283.446 1146.66 282.719C1146.56 282.299 1146.47 281.867 1146.37 281.44C1146.2 280.657 1146.03 279.874 1145.88 279.067C1145.8 278.638 1145.73 278.197 1145.65 277.762C1145.51 276.933 1145.37 276.103 1145.24 275.25C1145.18 274.824 1145.13 274.385 1145.07 273.953C1144.95 273.08 1144.83 272.21 1144.74 271.315C1144.68 270.8 1144.64 270.27 1144.59 269.748C1144.52 268.916 1144.43 268.088 1144.37 267.239C1144.32 266.526 1144.29 265.796 1144.26 265.073C1144.22 264.4 1144.18 263.737 1144.15 263.055C1144.1 261.633 1144.07 260.194 1144.07 258.739V258.699V258.697C1144.07 257.227 1144.1 255.774 1144.15 254.338C1144.18 253.666 1144.22 253.012 1144.26 252.348C1144.29 251.615 1144.32 250.876 1144.37 250.154C1144.43 249.306 1144.52 248.479 1144.59 247.647C1144.64 247.125 1144.68 246.595 1144.74 246.08C1144.83 245.179 1144.95 244.301 1145.07 243.422C1145.13 242.999 1145.18 242.569 1145.24 242.151C1145.37 241.284 1145.51 240.441 1145.66 239.598C1145.73 239.178 1145.8 238.752 1145.88 238.338C1146.04 237.506 1146.21 236.698 1146.39 235.893C1146.47 235.498 1146.56 235.098 1146.65 234.709C1146.83 233.94 1147.03 233.194 1147.22 232.451C1147.34 232.034 1147.45 231.616 1147.56 231.207C1147.76 230.535 1147.96 229.882 1148.17 229.235C1148.26 228.964 1148.33 228.677 1148.42 228.41C1148.48 228.243 1148.55 228.092 1148.6 227.928C1148.7 227.66 1148.78 227.374 1148.87 227.111C1149.37 225.751 1149.9 224.459 1150.47 223.225ZM1165.47 223.328C1165.42 223.358 1165.14 223.484 1164.58 224.053C1164.56 224.081 1164.53 224.105 1164.51 224.135C1164.37 224.275 1164.21 224.479 1164.06 224.666C1163.9 224.876 1163.73 225.098 1163.55 225.359C1163.45 225.493 1163.36 225.642 1163.27 225.789C1163.05 226.123 1162.84 226.486 1162.62 226.885C1162.52 227.05 1162.43 227.223 1162.34 227.398C1162.13 227.795 1161.93 228.225 1161.72 228.674C1161.6 228.934 1161.48 229.2 1161.36 229.477C1161.18 229.908 1161 230.365 1160.82 230.834C1160.7 231.145 1160.58 231.458 1160.47 231.785C1160.28 232.313 1160.1 232.865 1159.93 233.432C1159.83 233.733 1159.74 234.033 1159.65 234.346C1159.46 234.979 1159.29 235.64 1159.12 236.314C1159.04 236.604 1158.97 236.887 1158.9 237.184C1158.72 237.928 1158.55 238.7 1158.39 239.488C1158.34 239.746 1158.28 239.997 1158.23 240.26C1158.07 241.122 1157.91 242.015 1157.77 242.922C1157.73 243.14 1157.69 243.351 1157.66 243.572C1157.51 244.556 1157.38 245.569 1157.26 246.598C1157.24 246.764 1157.21 246.924 1157.2 247.092C1157.07 248.218 1156.96 249.371 1156.87 250.543C1156.86 250.628 1156.85 250.71 1156.85 250.795C1156.75 252.063 1156.68 253.353 1156.63 254.666C1156.58 255.991 1156.55 257.338 1156.55 258.699C1156.55 260.061 1156.58 261.406 1156.63 262.73C1156.68 264.042 1156.75 265.331 1156.85 266.598C1156.86 266.695 1156.86 266.789 1156.87 266.887C1156.96 268.044 1157.07 269.184 1157.19 270.297C1157.21 270.478 1157.24 270.652 1157.26 270.832C1157.38 271.846 1157.51 272.844 1157.66 273.814C1157.7 274.05 1157.74 274.275 1157.77 274.508C1157.92 275.398 1158.07 276.276 1158.23 277.123C1158.28 277.403 1158.34 277.671 1158.4 277.945C1158.56 278.711 1158.72 279.463 1158.89 280.188C1158.97 280.511 1159.05 280.82 1159.13 281.135C1159.29 281.784 1159.46 282.421 1159.64 283.031C1159.74 283.359 1159.84 283.674 1159.93 283.99C1160.11 284.541 1160.28 285.079 1160.46 285.594C1160.58 285.933 1160.7 286.258 1160.83 286.58C1161 287.042 1161.18 287.491 1161.36 287.916C1161.48 288.192 1161.6 288.457 1161.72 288.717C1161.93 289.173 1162.14 289.611 1162.35 290.014C1162.44 290.175 1162.52 290.334 1162.6 290.486C1162.84 290.907 1163.07 291.291 1163.29 291.641C1163.37 291.763 1163.45 291.888 1163.53 292.002C1163.72 292.289 1163.91 292.533 1164.09 292.76C1164.22 292.921 1164.36 293.097 1164.47 293.223C1164.53 293.28 1164.57 293.323 1164.62 293.373C1165.15 293.905 1165.41 294.033 1165.46 294.064C1165.61 293.981 1165.96 293.749 1166.58 293.018C1167.66 291.762 1169.06 289.317 1170.26 286.025C1172.65 279.443 1174.31 269.591 1174.31 258.699C1174.31 247.807 1172.65 237.953 1170.26 231.371C1169.06 228.08 1167.66 225.629 1166.58 224.373C1165.97 223.655 1165.62 223.416 1165.47 223.328ZM860.639 332.775L848.394 375.85C855.393 380.348 859.007 389.106 856.627 397.479L855.17 402.606C852.79 410.978 845.109 416.525 836.791 416.67L818.307 481.693C817.23 485.481 819.281 489.162 823.068 490.238L841.303 495.42C845.09 496.497 848.763 494.444 849.84 490.656L894.707 332.818C884.646 332.798 874.57 332.863 864.492 332.961C864.47 332.961 864.448 332.961 864.426 332.961C863.15 332.961 861.889 332.894 860.639 332.775Z" fill="#77BBFE"/>
<path d="M1138.61 134.342C1128.07 143.635 1113.74 154.281 1091.79 165.332L1091.67 165.389L1091.56 165.441C1062.83 178.47 1045.16 181.149 1029.68 185.256C1022.46 188.532 1015.32 197.686 1010.34 210.914C1005.31 224.278 1002.43 241.347 1002.43 258.697C1002.43 276.014 1005.44 293.098 1010.61 306.496C1015.74 319.774 1023.04 329.01 1030.29 332.281C1032.66 332.967 1040.99 334.811 1051.92 337.891C1063.1 341.041 1077.13 345.548 1091.51 351.93L1091.65 351.992L1091.79 352.061C1113.74 363.111 1128.07 373.756 1138.61 383.049C1137.46 379.745 1136.36 376.285 1135.31 372.658C1126.75 343.058 1121.6 302.958 1121.6 258.697C1121.6 214.425 1126.75 174.317 1135.32 144.715C1136.36 141.094 1137.46 137.641 1138.61 134.342ZM864.422 196.902C853.631 196.904 843.552 203.054 835.775 214.119C835.591 214.382 835.416 214.66 835.234 214.928H858.404C860.664 208.382 863.42 202.331 866.637 196.92C865.902 196.913 865.164 196.91 864.43 196.902L864.422 196.902ZM830.875 222.486C828.099 228.163 825.937 234.606 824.574 241.584H852.441C853.217 234.916 854.45 228.528 856.084 222.486H830.875ZM823.432 249.143C823.103 252.253 822.928 255.443 822.928 258.697C822.928 261.951 823.103 265.139 823.432 268.248H851.766C851.567 265.111 851.457 261.928 851.457 258.697C851.457 255.465 851.567 252.281 851.766 249.143H823.432ZM824.572 275.807C825.935 282.785 828.097 289.227 830.873 294.904H856.084C854.45 288.862 853.217 282.476 852.441 275.807H824.572ZM835.232 302.463C835.414 302.731 835.59 303.01 835.775 303.273C843.552 314.338 853.631 320.488 864.422 320.49H864.43C865.165 320.483 865.902 320.48 866.637 320.473C863.42 315.061 860.662 309.01 858.403 302.463L835.232 302.463ZM837.229 385.092C834.256 385.129 831.662 387.055 830.787 390.133L829.33 395.26C828.253 399.047 830.306 402.72 834.094 403.797L834.635 403.951C838.422 405.028 842.099 402.983 843.176 399.195L844.635 394.068C845.711 390.281 843.657 386.608 839.869 385.531L839.33 385.379C838.62 385.177 837.915 385.083 837.229 385.092Z" fill="#3B37B6"/>
<g style="mix-blend-mode:overlay" opacity="0.4">
<path d="M1173.94 105.736C1170.46 105.839 1165.99 108.579 1161.1 115.777C1156.17 123.022 1151.34 134.193 1147.3 148.184C1142.33 165.365 1138.48 186.804 1136.25 210.809C1144.85 210.847 1152.64 210.818 1158.51 210.768C1160.18 187.441 1163.93 166.233 1169.3 149.804C1174.67 133.375 1181.42 122.456 1188.69 118.416C1188.07 117.403 1187.46 116.449 1186.84 115.557C1181.93 108.469 1177.48 105.805 1173.94 105.736ZM1134.08 259.121C1134.09 270.941 1134.56 282.662 1135.33 294.156C1141.12 294.131 1145.59 294.149 1150.47 294.17C1149.9 292.933 1149.37 291.639 1148.87 290.277C1148.78 290.032 1148.71 289.765 1148.62 289.516C1148.56 289.335 1148.49 289.168 1148.42 288.984C1148.33 288.692 1148.24 288.376 1148.14 288.078C1147.95 287.471 1147.76 286.861 1147.58 286.232C1147.45 285.781 1147.32 285.318 1147.2 284.855C1147.01 284.152 1146.83 283.446 1146.66 282.719C1146.56 282.299 1146.47 281.867 1146.38 281.439C1146.2 280.657 1146.03 279.874 1145.88 279.066C1145.8 278.638 1145.73 278.197 1145.65 277.762C1145.51 276.932 1145.37 276.103 1145.24 275.25C1145.18 274.824 1145.13 274.385 1145.07 273.953C1144.95 273.08 1144.83 272.209 1144.74 271.314C1144.68 270.799 1144.64 270.27 1144.59 269.748C1144.52 268.915 1144.43 268.088 1144.37 267.238C1144.35 266.953 1144.34 266.66 1144.33 266.371C1140.42 264.206 1137.21 261.685 1134.08 259.121ZM1157.31 271.197C1157.42 272.084 1157.53 272.963 1157.66 273.814C1157.7 274.05 1157.74 274.275 1157.77 274.508C1157.92 275.398 1158.07 276.276 1158.23 277.123C1158.28 277.403 1158.34 277.671 1158.4 277.945C1158.56 278.711 1158.72 279.463 1158.89 280.188C1158.97 280.511 1159.05 280.82 1159.13 281.135C1159.29 281.784 1159.46 282.421 1159.64 283.031C1159.74 283.359 1159.83 283.674 1159.93 283.99C1160.11 284.541 1160.28 285.079 1160.46 285.594C1160.58 285.933 1160.7 286.258 1160.83 286.58C1161 287.042 1161.18 287.491 1161.36 287.916C1161.48 288.192 1161.6 288.457 1161.72 288.717C1161.93 289.173 1162.14 289.611 1162.35 290.014C1162.44 290.175 1162.52 290.334 1162.61 290.486C1162.84 290.907 1163.07 291.291 1163.29 291.641C1163.37 291.764 1163.45 291.888 1163.53 292.002C1163.72 292.289 1163.91 292.533 1164.09 292.76C1164.22 292.921 1164.36 293.097 1164.48 293.223C1164.53 293.28 1164.57 293.323 1164.62 293.373C1165.15 293.905 1165.41 294.033 1165.46 294.064C1165.61 293.981 1165.95 293.749 1166.58 293.018C1167.66 291.762 1169.06 289.317 1170.26 286.025C1171.55 282.458 1172.62 277.91 1173.34 272.777C1167.03 272.751 1161.78 272.173 1157.31 271.197ZM864.838 274.121C867.074 293.243 873.313 309.644 881.453 320.367C923.494 320.155 965.911 320.994 1007.54 327.842C1004.2 322.878 1001.36 317.174 998.977 310.988C995.377 301.663 992.8 291.127 991.346 280.043L864.838 274.121ZM824.572 275.807C825.935 282.785 828.097 289.227 830.873 294.904H856.084C854.45 288.862 853.217 282.476 852.441 275.807H824.572ZM1004.19 281.633C1005.58 290.651 1007.77 299.132 1010.61 306.496C1015.74 319.774 1023.04 329.01 1030.29 332.281C1032.66 332.967 1040.99 334.811 1051.92 337.891C1063.1 341.041 1077.13 345.548 1091.51 351.93L1091.65 351.992L1091.79 352.061C1113.74 363.111 1128.07 373.756 1138.61 383.049C1137.46 379.745 1136.36 376.285 1135.31 372.658C1131.72 360.226 1128.73 345.923 1126.47 330.256C1095.28 293.012 1035.74 287.656 1004.19 281.633ZM835.232 302.463C835.414 302.731 835.59 303.01 835.775 303.273C843.552 314.338 853.631 320.488 864.422 320.49H864.43C865.165 320.483 865.902 320.48 866.637 320.473C863.42 315.061 860.662 309.01 858.403 302.463L835.232 302.463ZM1163.99 306.545C1163.41 306.607 1162.83 306.652 1162.21 306.652C1162.18 306.653 1162.16 306.653 1162.13 306.652C1156.36 306.58 1146.49 306.541 1136.25 306.586C1138.48 330.583 1142.32 352.016 1147.29 369.195C1151.34 383.185 1156.17 394.358 1161.09 401.605C1165.98 408.809 1170.46 411.556 1173.93 411.66C1177.48 411.593 1181.92 408.93 1186.84 401.84C1191.82 394.658 1196.71 383.51 1200.81 369.516C1202.04 365.312 1203.2 360.823 1204.29 356.131C1201.26 358.646 1198.14 359.918 1195.01 359.918C1188.89 359.917 1182.86 355.052 1177.46 345.748C1172.05 336.444 1167.43 322.984 1163.99 306.545ZM847.73 329.34C831.736 335.264 815.623 340.843 799.275 345.682C767.201 355.175 745.164 362.148 701.436 367.98C695.012 368.837 685.053 378.447 685.053 378.447L685.182 378.482C686.683 377.475 688.369 376.767 689.859 376.627C700.26 375.646 709.659 375.737 719.461 374.373C739.192 371.628 758.723 367.382 778.029 362.471C797.166 357.602 815.921 351.305 834.664 345.092C838.158 343.934 841.658 342.784 845.156 341.633L848.547 329.703C848.273 329.588 848.003 329.46 847.73 329.34ZM860.639 332.775L848.395 375.85C855.393 380.348 859.007 389.106 856.627 397.479L855.17 402.605C852.79 410.978 845.109 416.525 836.791 416.67L818.307 481.693C817.762 483.61 818.02 485.499 818.896 487.037C841.788 439.316 853.226 399.516 891.75 343.219L894.707 332.818C884.646 332.798 874.57 332.863 864.492 332.961C864.469 332.961 864.448 332.961 864.426 332.961C863.15 332.961 861.889 332.894 860.639 332.775ZM837.229 385.092C834.256 385.13 831.662 387.055 830.787 390.133L829.33 395.26C828.253 399.047 830.306 402.72 834.094 403.797L834.635 403.951C838.422 405.028 842.099 402.983 843.176 399.195L844.635 394.068C845.711 390.281 843.657 386.608 839.869 385.531L839.33 385.379C838.62 385.177 837.915 385.083 837.229 385.092ZM681.49 389.496L680.004 426.848C687.449 424.955 694.843 422.842 702.225 420.754C703.522 420.387 704.799 419.943 706.086 419.531L699.189 393.6C696.362 394.039 689.221 395.014 686.881 394.645C684.578 394.281 682.139 392.468 681.49 389.496ZM64.5605 414.795C63.8791 414.805 63.1981 414.825 62.5176 414.854C49.7849 415.401 25.3789 423.934 25.3789 423.934C25.3789 423.934 36.207 420.789 41.7891 420.393C50.9059 419.744 60.1969 420.417 69.1367 422.318C77.7326 424.147 85.978 427.557 93.916 431.328C101.476 434.92 108.874 439.061 115.477 444.205C123.255 450.264 129.996 457.615 136.395 465.117C144.818 474.993 152.191 485.753 159.24 496.652C169.652 512.75 178.136 530.018 187.875 546.531C197.482 562.82 206.195 579.498 216.941 594.805L216.828 594.734C216.828 594.734 227.453 610.617 233.168 618.27C243.757 632.448 254.202 646.848 266.389 659.68C279.188 673.157 293.065 685.741 308.027 696.77C321.859 706.964 336.577 716.173 352.17 723.391C360.593 727.29 378.562 732.264 378.562 732.264L383.605 700.152C383.605 700.152 363.601 692.855 354.217 687.895C336.772 678.673 320.272 667.594 304.615 655.584C285.694 641.069 266.756 626.023 251.371 607.803C235.053 588.478 224.784 564.758 210.869 543.637C195.986 521.044 181.841 497.842 164.908 476.742C153.354 462.345 141.891 447.335 127.137 436.24C117.486 428.983 106.32 423.56 94.8262 419.859C85.7489 416.937 76.1563 414.935 66.6055 414.795C65.9233 414.784 65.242 414.785 64.5605 414.795ZM823.258 418.67L820.23 425.004C820.23 425.004 818.315 428.824 816.16 429.492C814.005 430.16 811.503 429.208 809.844 427.793C808.348 426.517 807.548 423.807 807.281 422.34L790.277 434.324C790.891 440.609 791.275 447.318 791.664 453.975C792.407 453.529 793.116 453.115 793.736 452.779C798.3 450.308 805.752 446.441 806.871 446.732C807.32 446.849 810.18 449.784 813.432 453.236L823.258 418.67ZM359.066 425.582L321.602 438.914C321.602 438.914 346.126 446.645 347.859 447.305C349.593 447.964 352.135 449.401 353.436 451.273C354.533 452.853 355.303 455.068 354.928 456.84C354.553 458.612 347.803 478.221 347.803 478.221C347.803 478.221 367.638 462.036 368.949 461.441C370.261 460.847 372.915 460.338 374.922 460.523C378.155 460.822 382.695 462.981 384.117 463.736C385.539 464.492 435.375 494.768 435.375 494.768L442.379 482.133C421.784 466.895 394.45 448.083 372.299 433.092C371.522 433.96 370.574 434.738 369.604 434.953C367.294 435.464 363.643 433.414 362.971 432.422C362.298 431.43 359.066 425.582 359.066 425.582ZM727.289 430.523C727.289 430.523 698.739 440.192 684.129 443.814C682.52 444.214 680.9 444.589 679.287 444.98L671.123 650.594C674.15 650.033 677.167 649.424 680.16 648.709C681.963 648.278 683.77 647.789 685.578 647.336C685.596 647.332 685.619 647.326 685.637 647.322C690.88 646.007 696.127 644.579 701.279 642.912C702.829 642.411 704.365 641.882 705.895 641.334C706.279 641.196 706.662 641.056 707.045 640.914C708.316 640.446 709.582 639.958 710.836 639.451C711.518 639.174 712.193 638.879 712.869 638.59C713.877 638.16 714.884 637.734 715.877 637.275C716.938 636.784 717.977 636.259 719.02 635.732C719.629 635.425 720.25 635.135 720.854 634.814C722.562 633.904 724.248 632.949 725.895 631.928C734.507 626.586 747.967 611.016 747.967 611.016C747.967 611.016 742.579 552.075 739.221 522.676C735.706 491.903 727.289 430.523 727.289 430.523ZM775.918 444.447L773.977 445.814C774.065 445.958 774.191 446.122 774.273 446.262C774.952 447.422 775.624 448.779 776.283 450.24C776.166 448.281 776.046 446.343 775.918 444.447ZM764.676 452.365L747.146 464.684L750.545 486.061L771.412 470.432C771.412 470.432 768.175 458.839 765.406 453.543C765.226 453.198 764.91 452.753 764.676 452.365ZM453.734 490.736L447.18 501.871C447.18 501.871 461.17 509.36 465.482 514.25C467.28 516.288 467.379 517.194 467.322 518.844C467.264 520.535 466.734 522.449 465.674 523.82L465.709 523.842C465.709 523.842 472.051 516.695 471.17 507.006C470.976 504.87 464.061 498.764 453.736 490.736H453.734ZM411.008 525.398L405.76 529.303L414.969 538.176C414.969 538.176 426.599 550.495 433.398 555.469C435.783 557.213 438.19 559.56 441.135 559.793C443.551 559.984 445.919 558.594 447.961 557.289C449.026 556.609 450.235 555.337 451.197 554.254C449.624 555.236 447.512 555.524 445.715 555.164C441.671 554.355 435.604 548.039 435.604 548.039L411.008 525.398ZM394.463 535.396L387.715 537.443C396.565 548.644 406.494 561.301 412.922 569.805C414.528 571.929 417.768 572.633 420.43 572.535C424.016 572.403 429.665 568.79 431.023 567.891C430.291 568.236 429.476 568.442 428.707 568.496C426.29 568.668 421.816 566.191 421.816 566.191L394.463 535.396ZM353.832 553.621C358.879 563.622 372.826 590.288 383.342 603.252C397.278 620.432 414.056 635.615 432.488 647.848C450.187 659.593 470.008 668.363 490.283 674.697C502.714 678.581 515.546 681.041 528.488 682.867C528.548 682.686 528.564 682.495 528.645 682.32C529.884 679.625 532.448 676.762 535.406 676.533C538.048 676.329 542.16 680.713 542.16 680.713C542.16 680.713 543.354 683.433 543.953 684.773C548.06 685.225 552.17 685.67 556.268 686.074C585.261 688.936 614.539 689.695 643.643 688.35C652.398 687.945 669.752 685.242 669.752 685.242L669.359 694.998C669.359 694.998 662.167 702.254 658.004 705.166C647.74 712.345 636.745 718.92 624.855 722.863C610.544 727.609 595.208 729.455 580.131 729.627C572.955 729.71 562.557 727.906 557.186 726.918C557.437 729.132 557.63 731.355 557.762 733.586C557.892 735.798 557.969 738.017 557.975 740.234C557.975 740.253 557.975 740.273 557.975 740.291C557.975 740.735 557.941 741.177 557.938 741.621C557.897 745.648 557.674 749.669 557.178 753.652C556.337 760.406 552.172 773.447 552.172 773.447C566.118 779.176 578.737 777.85 591.947 776.371C605.95 774.803 619.512 769.771 632.379 764.027C647.024 757.489 660.921 749.017 673.562 739.146C681.788 732.724 688.808 724.859 695.76 717.076C697.656 714.953 699.486 712.766 701.328 710.592C701.347 710.614 701.363 710.621 701.379 710.641C706.473 704.669 711.345 698.498 715.656 691.955C721.287 683.41 726.516 674.475 730.254 664.949C732.365 659.568 734.139 651.718 735.273 646.383C731.958 648.671 728.529 650.789 724.979 652.67C721.966 654.265 718.867 655.702 715.734 657.064C715.726 657.067 715.718 657.066 715.711 657.07C712.954 658.269 710.162 659.378 707.336 660.406C706.951 660.548 706.569 660.694 706.184 660.832C703.276 661.864 700.349 662.841 697.395 663.705C684.069 667.604 670.243 669.689 656.481 671.52C644.447 673.121 632.302 673.883 620.168 674.279C605.618 674.754 591.024 674.745 576.496 673.816C563.408 672.98 550.347 671.453 537.424 669.223C521.16 666.416 504.859 663.274 489.158 658.188C476.487 654.083 464.104 648.885 452.383 642.559C442.66 637.31 433.294 631.24 424.801 624.172C413.473 614.745 403.195 603.966 393.998 592.451C392.677 590.797 391.388 589.066 390.123 587.297C382.2 576.673 375.235 565.32 368.742 553.764C367.559 554.018 366.415 554.219 365.5 554.254C361.613 554.403 357.714 554.112 353.832 553.621ZM751.322 649.178C751.322 649.178 746.629 668.464 742.633 677.492C738.253 687.387 732.303 696.57 726.059 705.408C719.917 714.101 712.882 722.162 705.623 729.945C700.248 735.708 694.71 741.358 688.785 746.557C687.338 747.826 685.892 749.089 684.393 750.297C682.606 751.736 680.284 753.415 677.807 755.125C670.374 760.258 661.539 765.662 661.539 765.662L679.826 789.695L681.213 791.516L717.854 839.676L786.391 808.459C786.391 808.459 784.219 806.832 781.656 804.891C778.941 802.834 775.86 800.462 773.543 798.598L766.965 802.117L731.861 754.875C731.861 754.875 752.281 739.826 759.684 729.762C766.338 720.714 773.222 704.025 777.34 693.291C776.555 691.112 775.728 688.952 774.809 686.828C768.934 673.253 751.322 649.178 751.322 649.178ZM406.365 674.277L373.871 845.789L498.723 873.137C498.723 873.137 492.215 861.376 489.066 855.439C488.512 854.395 487.902 853.157 487.332 851.861L427.027 838.523L406.365 674.277ZM829.822 768.484L814.678 776.59C823.479 778.504 835.305 781.59 835.305 781.59L851.793 773.307C851.793 773.307 840.348 770.542 829.822 768.484ZM796.715 786.197L787.543 791.104C793.901 793.129 804.736 798.484 804.736 798.484L816.398 792.938C816.398 792.938 805.201 789.089 796.715 786.197ZM506.26 856.043C510.652 862.992 516.094 876.037 516.094 876.037L532.186 879.572C532.186 879.572 522.448 867.847 517.133 858.447L506.26 856.043ZM541.684 863.879C547.987 873.458 552.777 882.473 552.777 882.473L570.475 885.367C570.475 885.367 564.428 875.896 558.65 867.633L541.684 863.879Z" fill="#221D60"/>
</g>
</g>
<defs>
<clipPath id="clip0_1525_577">
<rect width="1227" height="600" fill="white"/>
</clipPath>
</defs>
</svg>
